<?xml version="1.0" ?><svg data-name="Adobe Folder 2020" id="Adobe_Folder_2020" viewBox="0 0 240 210" xmlns="http://www.w3.org/2000/svg"><defs><style>.cls-1{fill:#001d26;}.cls-2{fill:#d9f5ff;fill-rule:evenodd;}.cls-3{fill:#00c8ff;}</style></defs><title/><g id="Photoshop"><path class="cls-1" d="M232.5,52.5a15,15,0,0,0-15-15H7.5v150a15,15,0,0,0,15,15h195a15,15,0,0,0,15-15Z"/><path class="cls-2" d="M75.81,82c0-.46,1-.81,1.57-.81,4.5-.23,11.11-.34,18-.34,19.41,0,27,10.62,27,24.25,0,17.79-12.9,25.41-28.72,25.41-2.66,0-3.58-.12-5.43-.12v26.9c0,.58-.23.81-.81.81H76.62c-.58,0-.81-.23-.81-.81Zm12.42,37.19c1.62.12,2.89.12,5.66.12,8.2,0,15.91-2.89,15.91-14,0-8.89-5.51-13.4-14.87-13.4-2.77,0-5.43.12-6.7.23Zm60.25-8.32c-5.54,0-7.39,2.78-7.39,5.09,0,2.54,1.27,4.27,8.66,8.08,11,5.32,14.44,10.4,14.44,17.91,0,11.2-8.55,17.21-20.1,17.21-6.12,0-11.33-1.28-14.33-3-.46-.23-.58-.58-.58-1.15V144.72c0-.7.35-.93.81-.58a25.9,25.9,0,0,0,14.1,4.16c5.55,0,7.86-2.31,7.86-5.43,0-2.54-1.62-4.74-8.66-8.43-9.94-4.74-14.1-9.59-14.1-17.67,0-9,7.05-16.52,19.29-16.52,6,0,10.25.92,12.56,2a1.51,1.51,0,0,1,.69,1.39v9.59c0,.57-.34.92-1,.69A25.06,25.06,0,0,0,148.48,110.87Z"/><path class="cls-3" d="M217.5,30H137.63A3.41,3.41,0,0,1,135,28.88L111.75,5.63A18.2,18.2,0,0,0,98.63,0H22.5A22.57,22.57,0,0,0,0,22.5v165A22.57,22.57,0,0,0,22.5,210h195A22.57,22.57,0,0,0,240,187.5V52.5A22.57,22.57,0,0,0,217.5,30Zm15,157.5a15,15,0,0,1-15,15H22.5a15,15,0,0,1-15-15V37.5h210a15,15,0,0,1,15,15Z" data-name="Path 4" id="Path_4"/></g></svg>